<svg width="20" height="20" viewBox="0 0 20 20" fill="none" xmlns="http://www.w3.org/2000/svg">
<path d="M9.8077 0C7.86792 0 5.9717 0.575211 4.35883 1.65289C2.74597 2.73058 1.48889 4.26233 0.74657 6.05445C0.00424939 7.84657 -0.189975 9.81857 0.188457 11.7211C0.566888 13.6236 1.50098 15.3711 2.87261 16.7428C4.24424 18.1144 5.9918 19.0485 7.89431 19.4269C9.79681 19.8054 11.7688 19.6111 13.5609 18.8688C15.3531 18.1265 16.8848 16.8694 17.9625 15.2566C19.0402 13.6437 19.6154 11.7475 19.6154 9.80769C19.6123 7.20747 18.578 4.71462 16.7394 2.87598C14.9008 1.03734 12.4079 0.0030537 9.8077 0ZM10.3846 18.4423V11.9231H12.8846C13.0376 11.9231 13.1844 11.8623 13.2926 11.7541C13.4008 11.6459 13.4615 11.4992 13.4615 11.3462C13.4615 11.1931 13.4008 11.0464 13.2926 10.9382C13.1844 10.83 13.0376 10.7692 12.8846 10.7692H10.3846V8.26923C10.3846 7.8102 10.567 7.36997 10.8915 7.04539C11.2161 6.72081 11.6564 6.53846 12.1154 6.53846H13.6538C13.8069 6.53846 13.9536 6.47768 14.0618 6.36948C14.17 6.26129 14.2308 6.11455 14.2308 5.96154C14.2308 5.80853 14.17 5.66179 14.0618 5.55359C13.9536 5.4454 13.8069 5.38461 13.6538 5.38461H12.1154C11.3503 5.38461 10.6166 5.68853 10.0757 6.2295C9.53469 6.77047 9.23077 7.50418 9.23077 8.26923V10.7692H6.73077C6.57776 10.7692 6.43102 10.83 6.32283 10.9382C6.21463 11.0464 6.15385 11.1931 6.15385 11.3462C6.15385 11.4992 6.21463 11.6459 6.32283 11.7541C6.43102 11.8623 6.57776 11.9231 6.73077 11.9231H9.23077V18.4423C6.9906 18.2926 4.89628 17.2782 3.3901 15.6132C1.88392 13.9482 1.08378 11.763 1.15866 9.51909C1.23355 7.27517 2.17758 5.14819 3.79141 3.58731C5.40524 2.02644 7.56253 1.15387 9.8077 1.15387C12.0529 1.15387 14.2101 2.02644 15.824 3.58731C17.4378 5.14819 18.3818 7.27517 18.4567 9.51909C18.5316 11.763 17.7315 13.9482 16.2253 15.6132C14.7191 17.2782 12.6248 18.2926 10.3846 18.4423Z" fill="#F6FCFF"/>
</svg>
